<svg xmlns="http://www.w3.org/2000/svg" xmlns:xlink="http://www.w3.org/1999/xlink" width="1040" height="711.3"><rect width="1040" height="711.3" rx="5" ry="5" class="a"/><svg y="0%" x="0%"><circle cx="20" cy="20" r="6" fill="#ff5f58"/><circle cx="40" cy="20" r="6" fill="#ffbd2e"/><circle cx="60" cy="20" r="6" fill="#18c132"/></svg><svg height="651.3" viewBox="0 0 100 65.13" width="1000" x="15" xmlns="http://www.w3.org/2000/svg" xmlns:xlink="http://www.w3.org/1999/xlink" y="50"><style>@keyframes k{0%{transform:translateX(0)}1%{transform:translateX(-100px)}2%{transform:translateX(-200px)}3.1%{transform:translateX(-300px)}4.1%{transform:translateX(-400px)}5.2%{transform:translateX(-500px)}6.2%{transform:translateX(-600px)}7.3%{transform:translateX(-700px)}8.3%{transform:translateX(-800px)}9.4%{transform:translateX(-900px)}10.4%{transform:translateX(-1000px)}11.5%{transform:translateX(-1100px)}12.5%{transform:translateX(-1200px)}13.5%{transform:translateX(-1300px)}14.6%{transform:translateX(-1400px)}15.6%{transform:translateX(-1500px)}16.7%{transform:translateX(-1600px)}17.7%{transform:translateX(-1700px)}18.8%{transform:translateX(-1800px)}19.8%{transform:translateX(-1900px)}20.9%{transform:translateX(-2000px)}21.9%{transform:translateX(-2100px)}23%{transform:translateX(-2200px)}24%{transform:translateX(-2300px)}25%{transform:translateX(-2400px)}26.1%{transform:translateX(-2500px)}27.1%{transform:translateX(-2600px)}28.2%{transform:translateX(-2700px)}29.2%{transform:translateX(-2800px)}30.3%{transform:translateX(-2900px)}31.3%{transform:translateX(-3000px)}32.4%{transform:translateX(-3100px)}33.4%{transform:translateX(-3200px)}34.4%{transform:translateX(-3300px)}35.5%{transform:translateX(-3400px)}36.5%{transform:translateX(-3500px)}37.6%{transform:translateX(-3600px)}38.6%{transform:translateX(-3700px)}39.7%{transform:translateX(-3800px)}40.7%{transform:translateX(-3900px)}41.8%{transform:translateX(-4000px)}42.8%{transform:translateX(-4100px)}43.9%{transform:translateX(-4200px)}44.9%{transform:translateX(-4300px)}45.9%{transform:translateX(-4400px)}47%{transform:translateX(-4500px)}48%{transform:translateX(-4600px)}49.1%{transform:translateX(-4700px)}50.1%{transform:translateX(-4800px)}51.2%{transform:translateX(-4900px)}52.2%{transform:translateX(-5000px)}53.3%{transform:translateX(-5100px)}54.3%{transform:translateX(-5200px)}55.4%{transform:translateX(-5300px)}56.1%{transform:translateX(-7100px)}60.5%{transform:translateX(-7200px)}64.9%{transform:translateX(-7300px)}69.3%{transform:translateX(-7400px)}73.7%{transform:translateX(-7500px)}78.1%{transform:translateX(-7600px)}82.4%{transform:translateX(-7700px)}86.8%{transform:translateX(-7800px)}91.2%{transform:translateX(-7900px)}95.6%{transform:translateX(-8000px)}to{transform:translateX(-8200px)}}.a{fill:#282d35}.f{fill:#b9c0cb;white-space:pre}.g{fill:gold}.h{white-space:pre}</style><g font-family="Monaco,Consolas,Menlo,'Bitstream Vera Sans Mono','Powerline Symbols',monospace" font-size="1.67"><defs><symbol id="1"><text y="1.67" class="f">$</text><text x="2.004" y="1.67" class="f">phenorank</text></symbol><symbol id="2"><text y="1.67" class="f">$</text><text x="2.004" y="1.67" class="f">phenorank</text><text x="12.024" y="1.67" class="f">extract</text></symbol><symbol id="3"><text y="1.67" class="f">$</text><text x="2.004" y="1.67" class="f">phenorank</text><text x="12.024" y="1.67" class="f">extract</text><text x="20.04" y="1.67" class="f">--vignette</text></symbol><symbol id="4"><text y="1.67" class="f">$</text><text x="2.004" y="1.67" class="f">phenorank</text><text x="12.024" y="1.67" class="f">extract</text><text x="20.04" y="1.67" class="f">--vignette</text><text x="31.062" y="1.67" class="f">data/sample/classic.txt</text></symbol><symbol id="5"><text y="1.67" class="f">Hypothesis</text><text x="11.022" y="1.67" class="f">generation,</text><text x="23.046" y="1.67" class="f">NOT</text><text x="27.054" y="1.67" class="f">a</text><text x="29.058" y="1.67" class="f">diagnosis.</text><text x="40.08" y="1.67" class="f">Research</text><text x="49.098" y="1.67" class="f">tool</text><text x="54.108" y="1.67" class="f">only.</text><text x="60.12" y="1.67" class="f">This</text><text x="65.13" y="1.67" class="f">output</text><text x="72.144" y="1.67" class="f">is</text><text x="75.15" y="1.67" class="f">not</text><text x="79.158" y="1.67" class="f">clinical</text><text x="88.176" y="1.67" class="f">advice</text><text x="95.19" y="1.67" class="f">and</text><text x="99.198" y="1.67" class="f">r</text></symbol><symbol id="6"><text y="1.67" class="f">equires</text><text x="8.016" y="1.67" class="f">review</text><text x="15.03" y="1.67" class="f">by</text><text x="18.036" y="1.67" class="f">a</text><text x="20.04" y="1.67" class="f">licensed</text><text x="29.058" y="1.67" class="f">clinician.</text></symbol><symbol id="7"><text x="39.078" y="1.67" class="f">extracted</text><text x="49.098" y="1.67" class="f">HPO</text><text x="53.106" y="1.67" class="f">mentions</text><text x="62.124" y="1.67" class="f">(committed</text><text x="73.146" y="1.67" class="f">subset</text><text x="80.16" y="1.67" class="f">only)</text></symbol><symbol id="8"><path class="g" d="M85.17 0h15v2.171h-15z"/><text x="85.17" y="1.67" class="h">HP:0001250</text></symbol><symbol id="9"><path class="g" d="M0 0h57v2.171H0z"/><text y="1.67" class="h">positive Seizure surface=&apos;seizures&apos;</text></symbol><symbol id="10"><path class="g" d="M57.114 0h43v2.171h-43z"/><text x="57.114" y="1.67" class="h">HP:0001251 positive Ataxia</text></symbol><symbol id="11"><path class="g" d="M0 0h27v2.171H0z"/><text y="1.67" class="h">surface=&apos;ataxia&apos;</text></symbol><symbol id="12"><path class="g" d="M27.054 0h73v2.171h-73z"/><text x="27.054" y="1.67" class="h">HP:0000252 positive Microcephaly surface=&apos;microcepha</text></symbol><symbol id="13"><path class="g" d="M0 0h3v2.171H0z"/><text y="1.67" class="h">ly&apos;</text></symbol><symbol id="14"><path class="g" d="M3.006 0h92v2.171h-92z"/><text x="3.006" y="1.67" class="h">HP:0001263 positive Global developmental delay surface=&apos;global developmental delay&apos;</text></symbol><symbol id="15"><path class="g" d="M95.19 0h5v2.171h-5z"/><text x="95.19" y="1.67" class="h">HP:</text></symbol><symbol id="16"><path class="g" d="M0 0h67v2.171H0z"/><text y="1.67" class="h">0001332 positive Dystonia surface=&apos;dystonia&apos;</text></symbol><symbol id="17"><text x="67.134" y="1.67" class="f">unmapped:</text><text x="77.154" y="1.67" class="f">(none)</text></symbol><symbol id="18"><path class="g" d="M83.166 0h17v2.171h-17z"/><text x="83.166" y="1.67" class="h">positive=[&apos;HP:000</text></symbol><symbol id="19"><path class="g" d="M0 0h62v2.171H0z"/><text y="1.67" class="h">1250&apos;, &apos;HP:0001251&apos;, &apos;HP:0000252&apos;, &apos;HP:0001263&apos;, &apos;HP:0001332&apos;]</text></symbol><symbol id="20"><path class="g" d="M62.124 0h10v2.171h-10z"/><text x="62.124" y="1.67" class="h">negated=[]</text></symbol><symbol id="21"><path class="g" d="M72.144 0h12v2.171h-12z"/><text x="72.144" y="1.67" class="h">uncertain=[]</text></symbol><symbol id="22"><text x="84.168" y="1.67" class="f">Hypothesis</text><text x="95.19" y="1.67" class="f">gener</text></symbol><symbol id="23"><text y="1.67" class="f">ation,</text><text x="7.014" y="1.67" class="f">NOT</text><text x="11.022" y="1.67" class="f">a</text><text x="13.026" y="1.67" class="f">diagnosis.</text><text x="24.048" y="1.67" class="f">Research</text><text x="33.066" y="1.67" class="f">tool</text><text x="38.076" y="1.67" class="f">only.</text><text x="44.088" y="1.67" class="f">This</text><text x="49.098" y="1.67" class="f">output</text><text x="56.112" y="1.67" class="f">is</text><text x="59.118" y="1.67" class="f">not</text><text x="63.126" y="1.67" class="f">clinical</text><text x="72.144" y="1.67" class="f">advice</text><text x="79.158" y="1.67" class="f">and</text><text x="83.166" y="1.67" class="f">requires</text><text x="92.184" y="1.67" class="f">review</text><text x="99.198" y="1.67" class="f">b</text></symbol><symbol id="24"><text y="1.67" class="f">y</text><text x="2.004" y="1.67" class="f">a</text><text x="4.008" y="1.67" class="f">licensed</text><text x="13.026" y="1.67" class="f">clinician.</text></symbol><symbol id="a"><path fill="transparent" d="M0 0h100v31H0z"/></symbol><symbol id="b"><path fill="#6f7683" d="M0 0h1.102v2.171H0z"/></symbol></defs><path class="a" d="M0 0h100v65.13H0z"/><g style="animation-duration:7.9734s;animation-iteration-count:infinite;animation-name:k;animation-timing-function:steps(1,end)"><svg width="8300"><svg><use xlink:href="#a"/><use xlink:href="#b" x="-.004"/></svg><svg x="100"><use xlink:href="#a"/><use xlink:href="#b" x="1.996"/><text y="1.67" class="f">$</text></svg><svg x="200"><use xlink:href="#a"/><use xlink:href="#b" x="2.996"/><text y="1.67" class="f">$</text><text x="2.004" y="1.67" class="f">p</text></svg><svg x="300"><use xlink:href="#a"/><use xlink:href="#b" x="3.996"/><text y="1.67" class="f">$</text><text x="2.004" y="1.67" class="f">ph</text></svg><svg x="400"><use xlink:href="#a"/><use xlink:href="#b" x="4.996"/><text y="1.67" class="f">$</text><text x="2.004" y="1.67" class="f">phe</text></svg><svg x="500"><use xlink:href="#a"/><use xlink:href="#b" x="5.996"/><text y="1.67" class="f">$</text><text x="2.004" y="1.67" class="f">phen</text></svg><svg x="600"><use xlink:href="#a"/><use xlink:href="#b" x="6.996"/><text y="1.67" class="f">$</text><text x="2.004" y="1.67" class="f">pheno</text></svg><svg x="700"><use xlink:href="#a"/><use xlink:href="#b" x="7.996"/><text y="1.67" class="f">$</text><text x="2.004" y="1.67" class="f">phenor</text></svg><svg x="800"><use xlink:href="#a"/><use xlink:href="#b" x="8.996"/><text y="1.67" class="f">$</text><text x="2.004" y="1.67" class="f">phenora</text></svg><svg x="900"><use xlink:href="#a"/><use xlink:href="#b" x="9.996"/><text y="1.67" class="f">$</text><text x="2.004" y="1.67" class="f">phenoran</text></svg><svg x="1000"><use xlink:href="#a"/><use xlink:href="#b" x="10.996"/><use xlink:href="#1"/></svg><svg x="1100"><use xlink:href="#a"/><use xlink:href="#b" x="11.996"/><use xlink:href="#1"/></svg><svg x="1200"><use xlink:href="#a"/><use xlink:href="#b" x="12.996"/><text y="1.67" class="f">$</text><text x="2.004" y="1.67" class="f">phenorank</text><text x="12.024" y="1.67" class="f">e</text></svg><svg x="1300"><use xlink:href="#a"/><use xlink:href="#b" x="13.996"/><text y="1.67" class="f">$</text><text x="2.004" y="1.67" class="f">phenorank</text><text x="12.024" y="1.67" class="f">ex</text></svg><svg x="1400"><use xlink:href="#a"/><use xlink:href="#b" x="14.996"/><text y="1.67" class="f">$</text><text x="2.004" y="1.67" class="f">phenorank</text><text x="12.024" y="1.67" class="f">ext</text></svg><svg x="1500"><use xlink:href="#a"/><use xlink:href="#b" x="15.996"/><text y="1.67" class="f">$</text><text x="2.004" y="1.67" class="f">phenorank</text><text x="12.024" y="1.67" class="f">extr</text></svg><svg x="1600"><use xlink:href="#a"/><use xlink:href="#b" x="16.996"/><text y="1.67" class="f">$</text><text x="2.004" y="1.67" class="f">phenorank</text><text x="12.024" y="1.67" class="f">extra</text></svg><svg x="1700"><use xlink:href="#a"/><use xlink:href="#b" x="17.996"/><text y="1.67" class="f">$</text><text x="2.004" y="1.67" class="f">phenorank</text><text x="12.024" y="1.67" class="f">extrac</text></svg><svg x="1800"><use xlink:href="#a"/><use xlink:href="#b" x="18.996"/><use xlink:href="#2"/></svg><svg x="1900"><use xlink:href="#a"/><use xlink:href="#b" x="19.996"/><use xlink:href="#2"/></svg><svg x="2000"><use xlink:href="#a"/><use xlink:href="#b" x="20.996"/><text y="1.67" class="f">$</text><text x="2.004" y="1.67" class="f">phenorank</text><text x="12.024" y="1.67" class="f">extract</text><text x="20.04" y="1.67" class="f">-</text></svg><svg x="2100"><use xlink:href="#a"/><use xlink:href="#b" x="21.996"/><text y="1.67" class="f">$</text><text x="2.004" y="1.67" class="f">phenorank</text><text x="12.024" y="1.67" class="f">extract</text><text x="20.04" y="1.67" class="f">--</text></svg><svg x="2200"><use xlink:href="#a"/><use xlink:href="#b" x="22.996"/><text y="1.67" class="f">$</text><text x="2.004" y="1.67" class="f">phenorank</text><text x="12.024" y="1.67" class="f">extract</text><text x="20.04" y="1.67" class="f">--v</text></svg><svg x="2300"><use xlink:href="#a"/><use xlink:href="#b" x="23.996"/><text y="1.67" class="f">$</text><text x="2.004" y="1.67" class="f">phenorank</text><text x="12.024" y="1.67" class="f">extract</text><text x="20.04" y="1.67" class="f">--vi</text></svg><svg x="2400"><use xlink:href="#a"/><use xlink:href="#b" x="24.996"/><text y="1.67" class="f">$</text><text x="2.004" y="1.67" class="f">phenorank</text><text x="12.024" y="1.67" class="f">extract</text><text x="20.04" y="1.67" class="f">--vig</text></svg><svg x="2500"><use xlink:href="#a"/><use xlink:href="#b" x="25.996"/><text y="1.67" class="f">$</text><text x="2.004" y="1.67" class="f">phenorank</text><text x="12.024" y="1.67" class="f">extract</text><text x="20.04" y="1.67" class="f">--vign</text></svg><svg x="2600"><use xlink:href="#a"/><use xlink:href="#b" x="26.996"/><text y="1.67" class="f">$</text><text x="2.004" y="1.67" class="f">phenorank</text><text x="12.024" y="1.67" class="f">extract</text><text x="20.04" y="1.67" class="f">--vigne</text></svg><svg x="2700"><use xlink:href="#a"/><use xlink:href="#b" x="27.996"/><text y="1.67" class="f">$</text><text x="2.004" y="1.67" class="f">phenorank</text><text x="12.024" y="1.67" class="f">extract</text><text x="20.04" y="1.67" class="f">--vignet</text></svg><svg x="2800"><use xlink:href="#a"/><use xlink:href="#b" x="28.996"/><text y="1.67" class="f">$</text><text x="2.004" y="1.67" class="f">phenorank</text><text x="12.024" y="1.67" class="f">extract</text><text x="20.04" y="1.67" class="f">--vignett</text></svg><svg x="2900"><use xlink:href="#a"/><use xlink:href="#b" x="29.996"/><use xlink:href="#3"/></svg><svg x="3000"><use xlink:href="#a"/><use xlink:href="#b" x="30.996"/><use xlink:href="#3"/></svg><svg x="3100"><use xlink:href="#a"/><use xlink:href="#b" x="31.996"/><text y="1.67" class="f">$</text><text x="2.004" y="1.67" class="f">phenorank</text><text x="12.024" y="1.67" class="f">extract</text><text x="20.04" y="1.67" class="f">--vignette</text><text x="31.062" y="1.67" class="f">d</text></svg><svg x="3200"><use xlink:href="#a"/><use xlink:href="#b" x="32.996"/><text y="1.67" class="f">$</text><text x="2.004" y="1.67" class="f">phenorank</text><text x="12.024" y="1.67" class="f">extract</text><text x="20.04" y="1.67" class="f">--vignette</text><text x="31.062" y="1.67" class="f">da</text></svg><svg x="3300"><use xlink:href="#a"/><use xlink:href="#b" x="33.996"/><text y="1.67" class="f">$</text><text x="2.004" y="1.67" class="f">phenorank</text><text x="12.024" y="1.67" class="f">extract</text><text x="20.04" y="1.67" class="f">--vignette</text><text x="31.062" y="1.67" class="f">dat</text></svg><svg x="3400"><use xlink:href="#a"/><use xlink:href="#b" x="34.996"/><text y="1.67" class="f">$</text><text x="2.004" y="1.67" class="f">phenorank</text><text x="12.024" y="1.67" class="f">extract</text><text x="20.04" y="1.67" class="f">--vignette</text><text x="31.062" y="1.67" class="f">data</text></svg><svg x="3500"><use xlink:href="#a"/><use xlink:href="#b" x="35.996"/><text y="1.67" class="f">$</text><text x="2.004" y="1.67" class="f">phenorank</text><text x="12.024" y="1.67" class="f">extract</text><text x="20.04" y="1.67" class="f">--vignette</text><text x="31.062" y="1.67" class="f">data/</text></svg><svg x="3600"><use xlink:href="#a"/><use xlink:href="#b" x="36.996"/><text y="1.67" class="f">$</text><text x="2.004" y="1.67" class="f">phenorank</text><text x="12.024" y="1.67" class="f">extract</text><text x="20.04" y="1.67" class="f">--vignette</text><text x="31.062" y="1.67" class="f">data/s</text></svg><svg x="3700"><use xlink:href="#a"/><use xlink:href="#b" x="37.996"/><text y="1.67" class="f">$</text><text x="2.004" y="1.67" class="f">phenorank</text><text x="12.024" y="1.67" class="f">extract</text><text x="20.04" y="1.67" class="f">--vignette</text><text x="31.062" y="1.67" class="f">data/sa</text></svg><svg x="3800"><use xlink:href="#a"/><use xlink:href="#b" x="38.996"/><text y="1.67" class="f">$</text><text x="2.004" y="1.67" class="f">phenorank</text><text x="12.024" y="1.67" class="f">extract</text><text x="20.04" y="1.67" class="f">--vignette</text><text x="31.062" y="1.67" class="f">data/sam</text></svg><svg x="3900"><use xlink:href="#a"/><use xlink:href="#b" x="39.996"/><text y="1.67" class="f">$</text><text x="2.004" y="1.67" class="f">phenorank</text><text x="12.024" y="1.67" class="f">extract</text><text x="20.04" y="1.67" class="f">--vignette</text><text x="31.062" y="1.67" class="f">data/samp</text></svg><svg x="4000"><use xlink:href="#a"/><use xlink:href="#b" x="40.996"/><text y="1.67" class="f">$</text><text x="2.004" y="1.67" class="f">phenorank</text><text x="12.024" y="1.67" class="f">extract</text><text x="20.04" y="1.67" class="f">--vignette</text><text x="31.062" y="1.67" class="f">data/sampl</text></svg><svg x="4100"><use xlink:href="#a"/><use xlink:href="#b" x="41.996"/><text y="1.67" class="f">$</text><text x="2.004" y="1.67" class="f">phenorank</text><text x="12.024" y="1.67" class="f">extract</text><text x="20.04" y="1.67" class="f">--vignette</text><text x="31.062" y="1.67" class="f">data/sample</text></svg><svg x="4200"><use xlink:href="#a"/><use xlink:href="#b" x="42.996"/><text y="1.67" class="f">$</text><text x="2.004" y="1.67" class="f">phenorank</text><text x="12.024" y="1.67" class="f">extract</text><text x="20.04" y="1.67" class="f">--vignette</text><text x="31.062" y="1.67" class="f">data/sample/</text></svg><svg x="4300"><use xlink:href="#a"/><use xlink:href="#b" x="43.996"/><text y="1.67" class="f">$</text><text x="2.004" y="1.67" class="f">phenorank</text><text x="12.024" y="1.67" class="f">extract</text><text x="20.04" y="1.67" class="f">--vignette</text><text x="31.062" y="1.67" class="f">data/sample/c</text></svg><svg x="4400"><use xlink:href="#a"/><use xlink:href="#b" x="44.996"/><text y="1.67" class="f">$</text><text x="2.004" y="1.67" class="f">phenorank</text><text x="12.024" y="1.67" class="f">extract</text><text x="20.04" y="1.67" class="f">--vignette</text><text x="31.062" y="1.67" class="f">data/sample/cl</text></svg><svg x="4500"><use xlink:href="#a"/><use xlink:href="#b" x="45.996"/><text y="1.67" class="f">$</text><text x="2.004" y="1.67" class="f">phenorank</text><text x="12.024" y="1.67" class="f">extract</text><text x="20.04" y="1.67" class="f">--vignette</text><text x="31.062" y="1.67" class="f">data/sample/cla</text></svg><svg x="4600"><use xlink:href="#a"/><use xlink:href="#b" x="46.996"/><text y="1.67" class="f">$</text><text x="2.004" y="1.67" class="f">phenorank</text><text x="12.024" y="1.67" class="f">extract</text><text x="20.04" y="1.67" class="f">--vignette</text><text x="31.062" y="1.67" class="f">data/sample/clas</text></svg><svg x="4700"><use xlink:href="#a"/><use xlink:href="#b" x="47.996"/><text y="1.67" class="f">$</text><text x="2.004" y="1.67" class="f">phenorank</text><text x="12.024" y="1.67" class="f">extract</text><text x="20.04" y="1.67" class="f">--vignette</text><text x="31.062" y="1.67" class="f">data/sample/class</text></svg><svg x="4800"><use xlink:href="#a"/><use xlink:href="#b" x="48.996"/><text y="1.67" class="f">$</text><text x="2.004" y="1.67" class="f">phenorank</text><text x="12.024" y="1.67" class="f">extract</text><text x="20.04" y="1.67" class="f">--vignette</text><text x="31.062" y="1.67" class="f">data/sample/classi</text></svg><svg x="4900"><use xlink:href="#a"/><use xlink:href="#b" x="49.996"/><text y="1.67" class="f">$</text><text x="2.004" y="1.67" class="f">phenorank</text><text x="12.024" y="1.67" class="f">extract</text><text x="20.04" y="1.67" class="f">--vignette</text><text x="31.062" y="1.67" class="f">data/sample/classic</text></svg><svg x="5000"><use xlink:href="#a"/><use xlink:href="#b" x="50.996"/><text y="1.67" class="f">$</text><text x="2.004" y="1.67" class="f">phenorank</text><text x="12.024" y="1.67" class="f">extract</text><text x="20.04" y="1.67" class="f">--vignette</text><text x="31.062" y="1.67" class="f">data/sample/classic.</text></svg><svg x="5100"><use xlink:href="#a"/><use xlink:href="#b" x="51.996"/><text y="1.67" class="f">$</text><text x="2.004" y="1.67" class="f">phenorank</text><text x="12.024" y="1.67" class="f">extract</text><text x="20.04" y="1.67" class="f">--vignette</text><text x="31.062" y="1.67" class="f">data/sample/classic.t</text></svg><svg x="5200"><use xlink:href="#a"/><use xlink:href="#b" x="52.996"/><text y="1.67" class="f">$</text><text x="2.004" y="1.67" class="f">phenorank</text><text x="12.024" y="1.67" class="f">extract</text><text x="20.04" y="1.67" class="f">--vignette</text><text x="31.062" y="1.67" class="f">data/sample/classic.tx</text></svg><svg x="5300"><use xlink:href="#a"/><use xlink:href="#b" x="53.996"/><use xlink:href="#4"/></svg><svg x="5400"><use xlink:href="#a"/><use xlink:href="#b" x="-.004" y="2.146"/><use xlink:href="#4"/></svg><svg x="5500"><use xlink:href="#a"/><use xlink:href="#b" x="38.996" y="6.488"/><use xlink:href="#4"/><use xlink:href="#5" y="2.171"/><use xlink:href="#6" y="4.342"/></svg><svg x="5600"><use xlink:href="#a"/><use xlink:href="#b" x="38.996" y="8.659"/><use xlink:href="#4"/><use xlink:href="#5" y="2.171"/><use xlink:href="#6" y="4.342"/></svg><svg x="5700"><use xlink:href="#a"/><use xlink:href="#b" x="84.996" y="10.83"/><use xlink:href="#4"/><use xlink:href="#5" y="2.171"/><use xlink:href="#6" y="4.342"/><use xlink:href="#7" y="8.684"/></svg><svg x="5800"><use xlink:href="#a"/><use xlink:href="#b" x="84.996" y="13.001"/><use xlink:href="#4"/><use xlink:href="#5" y="2.171"/><use xlink:href="#6" y="4.342"/><use xlink:href="#7" y="8.684"/></svg><svg x="5900"><use xlink:href="#a"/><use xlink:href="#b" x="56.996" y="17.343"/><use xlink:href="#4"/><use xlink:href="#5" y="2.171"/><use xlink:href="#6" y="4.342"/><use xlink:href="#7" y="8.684"/><use xlink:href="#8" y="13.026"/><use xlink:href="#9" y="15.197"/></svg><svg x="6000"><use xlink:href="#a"/><use xlink:href="#b" x="26.996" y="21.685"/><use xlink:href="#4"/><use xlink:href="#5" y="2.171"/><use xlink:href="#6" y="4.342"/><use xlink:href="#7" y="8.684"/><use xlink:href="#8" y="13.026"/><use xlink:href="#9" y="15.197"/><use xlink:href="#10" y="17.368"/><use xlink:href="#11" y="19.539"/></svg><svg x="6100"><use xlink:href="#a"/><use xlink:href="#b" x="2.996" y="26.027"/><use xlink:href="#4"/><use xlink:href="#5" y="2.171"/><use xlink:href="#6" y="4.342"/><use xlink:href="#7" y="8.684"/><use xlink:href="#8" y="13.026"/><use xlink:href="#9" y="15.197"/><use xlink:href="#10" y="17.368"/><use xlink:href="#11" y="19.539"/><use xlink:href="#12" y="21.71"/><use xlink:href="#13" y="23.881"/></svg><svg x="6200"><use xlink:href="#a"/><use xlink:href="#b" x="94.996" y="28.198"/><use xlink:href="#4"/><use xlink:href="#5" y="2.171"/><use xlink:href="#6" y="4.342"/><use xlink:href="#7" y="8.684"/><use xlink:href="#8" y="13.026"/><use xlink:href="#9" y="15.197"/><use xlink:href="#10" y="17.368"/><use xlink:href="#11" y="19.539"/><use xlink:href="#12" y="21.71"/><use xlink:href="#13" y="23.881"/><use xlink:href="#14" y="26.052"/></svg><svg x="6300"><use xlink:href="#a"/><use xlink:href="#b" x="66.996" y="32.54"/><use xlink:href="#4"/><use xlink:href="#5" y="2.171"/><use xlink:href="#6" y="4.342"/><use xlink:href="#7" y="8.684"/><use xlink:href="#8" y="13.026"/><use xlink:href="#9" y="15.197"/><use xlink:href="#10" y="17.368"/><use xlink:href="#11" y="19.539"/><use xlink:href="#12" y="21.71"/><use xlink:href="#13" y="23.881"/><use xlink:href="#14" y="26.052"/><use xlink:href="#15" y="28.223"/><use xlink:href="#16" y="30.394"/></svg><svg x="6400"><use xlink:href="#a"/><use xlink:href="#b" x="66.996" y="34.711"/><use xlink:href="#4"/><use xlink:href="#5" y="2.171"/><use xlink:href="#6" y="4.342"/><use xlink:href="#7" y="8.684"/><use xlink:href="#8" y="13.026"/><use xlink:href="#9" y="15.197"/><use xlink:href="#10" y="17.368"/><use xlink:href="#11" y="19.539"/><use xlink:href="#12" y="21.71"/><use xlink:href="#13" y="23.881"/><use xlink:href="#14" y="26.052"/><use xlink:href="#15" y="28.223"/><use xlink:href="#16" y="30.394"/></svg><svg x="6500"><use xlink:href="#a"/><use xlink:href="#b" x="82.996" y="36.882"/><use xlink:href="#4"/><use xlink:href="#5" y="2.171"/><use xlink:href="#6" y="4.342"/><use xlink:href="#7" y="8.684"/><use xlink:href="#8" y="13.026"/><use xlink:href="#9" y="15.197"/><use xlink:href="#10" y="17.368"/><use xlink:href="#11" y="19.539"/><use xlink:href="#12" y="21.71"/><use xlink:href="#13" y="23.881"/><use xlink:href="#14" y="26.052"/><use xlink:href="#15" y="28.223"/><use xlink:href="#16" y="30.394"/><use xlink:href="#17" y="34.736"/></svg><svg x="6600"><use xlink:href="#a"/><use xlink:href="#b" x="82.996" y="39.053"/><use xlink:href="#4"/><use xlink:href="#5" y="2.171"/><use xlink:href="#6" y="4.342"/><use xlink:href="#7" y="8.684"/><use xlink:href="#8" y="13.026"/><use xlink:href="#9" y="15.197"/><use xlink:href="#10" y="17.368"/><use xlink:href="#11" y="19.539"/><use xlink:href="#12" y="21.71"/><use xlink:href="#13" y="23.881"/><use xlink:href="#14" y="26.052"/><use xlink:href="#15" y="28.223"/><use xlink:href="#16" y="30.394"/><use xlink:href="#17" y="34.736"/></svg><svg x="6700"><use xlink:href="#a"/><use xlink:href="#b" x="61.996" y="43.395"/><use xlink:href="#4"/><use xlink:href="#5" y="2.171"/><use xlink:href="#6" y="4.342"/><use xlink:href="#7" y="8.684"/><use xlink:href="#8" y="13.026"/><use xlink:href="#9" y="15.197"/><use xlink:href="#10" y="17.368"/><use xlink:href="#11" y="19.539"/><use xlink:href="#12" y="21.71"/><use xlink:href="#13" y="23.881"/><use xlink:href="#14" y="26.052"/><use xlink:href="#15" y="28.223"/><use xlink:href="#16" y="30.394"/><use xlink:href="#17" y="34.736"/><use xlink:href="#18" y="39.078"/><use xlink:href="#19" y="41.249"/></svg><svg x="6800"><use xlink:href="#a"/><use xlink:href="#b" x="71.996" y="45.566"/><use xlink:href="#4"/><use xlink:href="#5" y="2.171"/><use xlink:href="#6" y="4.342"/><use xlink:href="#7" y="8.684"/><use xlink:href="#8" y="13.026"/><use xlink:href="#9" y="15.197"/><use xlink:href="#10" y="17.368"/><use xlink:href="#11" y="19.539"/><use xlink:href="#12" y="21.71"/><use xlink:href="#13" y="23.881"/><use xlink:href="#14" y="26.052"/><use xlink:href="#15" y="28.223"/><use xlink:href="#16" y="30.394"/><use xlink:href="#17" y="34.736"/><use xlink:href="#18" y="39.078"/><use xlink:href="#19" y="41.249"/><use xlink:href="#20" y="43.42"/></svg><svg x="6900"><use xlink:href="#a"/><use xlink:href="#b" x="83.996" y="47.737"/><use xlink:href="#4"/><use xlink:href="#5" y="2.171"/><use xlink:href="#6" y="4.342"/><use xlink:href="#7" y="8.684"/><use xlink:href="#8" y="13.026"/><use xlink:href="#9" y="15.197"/><use xlink:href="#10" y="17.368"/><use xlink:href="#11" y="19.539"/><use xlink:href="#12" y="21.71"/><use xlink:href="#13" y="23.881"/><use xlink:href="#14" y="26.052"/><use xlink:href="#15" y="28.223"/><use xlink:href="#16" y="30.394"/><use xlink:href="#17" y="34.736"/><use xlink:href="#18" y="39.078"/><use xlink:href="#19" y="41.249"/><use xlink:href="#20" y="43.42"/><use xlink:href="#21" y="45.591"/></svg><svg x="7000"><use xlink:href="#a"/><use xlink:href="#b" x="83.996" y="49.908"/><use xlink:href="#4"/><use xlink:href="#5" y="2.171"/><use xlink:href="#6" y="4.342"/><use xlink:href="#7" y="8.684"/><use xlink:href="#8" y="13.026"/><use xlink:href="#9" y="15.197"/><use xlink:href="#10" y="17.368"/><use xlink:href="#11" y="19.539"/><use xlink:href="#12" y="21.71"/><use xlink:href="#13" y="23.881"/><use xlink:href="#14" y="26.052"/><use xlink:href="#15" y="28.223"/><use xlink:href="#16" y="30.394"/><use xlink:href="#17" y="34.736"/><use xlink:href="#18" y="39.078"/><use xlink:href="#19" y="41.249"/><use xlink:href="#20" y="43.42"/><use xlink:href="#21" y="45.591"/></svg><svg x="7100"><use xlink:href="#a"/><use xlink:href="#b" x="22.996" y="56.421"/><use xlink:href="#4"/><use xlink:href="#5" y="2.171"/><use xlink:href="#6" y="4.342"/><use xlink:href="#7" y="8.684"/><use xlink:href="#8" y="13.026"/><use xlink:href="#9" y="15.197"/><use xlink:href="#10" y="17.368"/><use xlink:href="#11" y="19.539"/><use xlink:href="#12" y="21.71"/><use xlink:href="#13" y="23.881"/><use xlink:href="#14" y="26.052"/><use xlink:href="#15" y="28.223"/><use xlink:href="#16" y="30.394"/><use xlink:href="#17" y="34.736"/><use xlink:href="#18" y="39.078"/><use xlink:href="#19" y="41.249"/><use xlink:href="#20" y="43.42"/><use xlink:href="#21" y="45.591"/><use xlink:href="#22" y="49.933"/><use xlink:href="#23" y="52.104"/><use xlink:href="#24" y="54.275"/></svg><svg x="7200"><use xlink:href="#a"/><use xlink:href="#b" x="22.996" y="56.421"/><use xlink:href="#4"/><use xlink:href="#5" y="2.171"/><use xlink:href="#6" y="4.342"/><use xlink:href="#7" y="8.684"/><use xlink:href="#8" y="13.026"/><use xlink:href="#9" y="15.197"/><use xlink:href="#10" y="17.368"/><use xlink:href="#11" y="19.539"/><use xlink:href="#12" y="21.71"/><use xlink:href="#13" y="23.881"/><use xlink:href="#14" y="26.052"/><use xlink:href="#15" y="28.223"/><use xlink:href="#16" y="30.394"/><use xlink:href="#17" y="34.736"/><use xlink:href="#18" y="39.078"/><use xlink:href="#19" y="41.249"/><use xlink:href="#20" y="43.42"/><use xlink:href="#21" y="45.591"/><use xlink:href="#22" y="49.933"/><use xlink:href="#23" y="52.104"/><use xlink:href="#24" y="54.275"/></svg><svg x="7300"><use xlink:href="#a"/><use xlink:href="#b" x="22.996" y="56.421"/><use xlink:href="#4"/><use xlink:href="#5" y="2.171"/><use xlink:href="#6" y="4.342"/><use xlink:href="#7" y="8.684"/><use xlink:href="#8" y="13.026"/><use xlink:href="#9" y="15.197"/><use xlink:href="#10" y="17.368"/><use xlink:href="#11" y="19.539"/><use xlink:href="#12" y="21.71"/><use xlink:href="#13" y="23.881"/><use xlink:href="#14" y="26.052"/><use xlink:href="#15" y="28.223"/><use xlink:href="#16" y="30.394"/><use xlink:href="#17" y="34.736"/><use xlink:href="#18" y="39.078"/><use xlink:href="#19" y="41.249"/><use xlink:href="#20" y="43.42"/><use xlink:href="#21" y="45.591"/><use xlink:href="#22" y="49.933"/><use xlink:href="#23" y="52.104"/><use xlink:href="#24" y="54.275"/></svg><svg x="7400"><use xlink:href="#a"/><use xlink:href="#b" x="22.996" y="56.421"/><use xlink:href="#4"/><use xlink:href="#5" y="2.171"/><use xlink:href="#6" y="4.342"/><use xlink:href="#7" y="8.684"/><use xlink:href="#8" y="13.026"/><use xlink:href="#9" y="15.197"/><use xlink:href="#10" y="17.368"/><use xlink:href="#11" y="19.539"/><use xlink:href="#12" y="21.71"/><use xlink:href="#13" y="23.881"/><use xlink:href="#14" y="26.052"/><use xlink:href="#15" y="28.223"/><use xlink:href="#16" y="30.394"/><use xlink:href="#17" y="34.736"/><use xlink:href="#18" y="39.078"/><use xlink:href="#19" y="41.249"/><use xlink:href="#20" y="43.42"/><use xlink:href="#21" y="45.591"/><use xlink:href="#22" y="49.933"/><use xlink:href="#23" y="52.104"/><use xlink:href="#24" y="54.275"/></svg><svg x="7500"><use xlink:href="#a"/><use xlink:href="#b" x="22.996" y="56.421"/><use xlink:href="#4"/><use xlink:href="#5" y="2.171"/><use xlink:href="#6" y="4.342"/><use xlink:href="#7" y="8.684"/><use xlink:href="#8" y="13.026"/><use xlink:href="#9" y="15.197"/><use xlink:href="#10" y="17.368"/><use xlink:href="#11" y="19.539"/><use xlink:href="#12" y="21.71"/><use xlink:href="#13" y="23.881"/><use xlink:href="#14" y="26.052"/><use xlink:href="#15" y="28.223"/><use xlink:href="#16" y="30.394"/><use xlink:href="#17" y="34.736"/><use xlink:href="#18" y="39.078"/><use xlink:href="#19" y="41.249"/><use xlink:href="#20" y="43.42"/><use xlink:href="#21" y="45.591"/><use xlink:href="#22" y="49.933"/><use xlink:href="#23" y="52.104"/><use xlink:href="#24" y="54.275"/></svg><svg x="7600"><use xlink:href="#a"/><use xlink:href="#b" x="22.996" y="56.421"/><use xlink:href="#4"/><use xlink:href="#5" y="2.171"/><use xlink:href="#6" y="4.342"/><use xlink:href="#7" y="8.684"/><use xlink:href="#8" y="13.026"/><use xlink:href="#9" y="15.197"/><use xlink:href="#10" y="17.368"/><use xlink:href="#11" y="19.539"/><use xlink:href="#12" y="21.71"/><use xlink:href="#13" y="23.881"/><use xlink:href="#14" y="26.052"/><use xlink:href="#15" y="28.223"/><use xlink:href="#16" y="30.394"/><use xlink:href="#17" y="34.736"/><use xlink:href="#18" y="39.078"/><use xlink:href="#19" y="41.249"/><use xlink:href="#20" y="43.42"/><use xlink:href="#21" y="45.591"/><use xlink:href="#22" y="49.933"/><use xlink:href="#23" y="52.104"/><use xlink:href="#24" y="54.275"/></svg><svg x="7700"><use xlink:href="#a"/><use xlink:href="#b" x="22.996" y="56.421"/><use xlink:href="#4"/><use xlink:href="#5" y="2.171"/><use xlink:href="#6" y="4.342"/><use xlink:href="#7" y="8.684"/><use xlink:href="#8" y="13.026"/><use xlink:href="#9" y="15.197"/><use xlink:href="#10" y="17.368"/><use xlink:href="#11" y="19.539"/><use xlink:href="#12" y="21.71"/><use xlink:href="#13" y="23.881"/><use xlink:href="#14" y="26.052"/><use xlink:href="#15" y="28.223"/><use xlink:href="#16" y="30.394"/><use xlink:href="#17" y="34.736"/><use xlink:href="#18" y="39.078"/><use xlink:href="#19" y="41.249"/><use xlink:href="#20" y="43.42"/><use xlink:href="#21" y="45.591"/><use xlink:href="#22" y="49.933"/><use xlink:href="#23" y="52.104"/><use xlink:href="#24" y="54.275"/></svg><svg x="7800"><use xlink:href="#a"/><use xlink:href="#b" x="22.996" y="56.421"/><use xlink:href="#4"/><use xlink:href="#5" y="2.171"/><use xlink:href="#6" y="4.342"/><use xlink:href="#7" y="8.684"/><use xlink:href="#8" y="13.026"/><use xlink:href="#9" y="15.197"/><use xlink:href="#10" y="17.368"/><use xlink:href="#11" y="19.539"/><use xlink:href="#12" y="21.71"/><use xlink:href="#13" y="23.881"/><use xlink:href="#14" y="26.052"/><use xlink:href="#15" y="28.223"/><use xlink:href="#16" y="30.394"/><use xlink:href="#17" y="34.736"/><use xlink:href="#18" y="39.078"/><use xlink:href="#19" y="41.249"/><use xlink:href="#20" y="43.42"/><use xlink:href="#21" y="45.591"/><use xlink:href="#22" y="49.933"/><use xlink:href="#23" y="52.104"/><use xlink:href="#24" y="54.275"/></svg><svg x="7900"><use xlink:href="#a"/><use xlink:href="#b" x="22.996" y="56.421"/><use xlink:href="#4"/><use xlink:href="#5" y="2.171"/><use xlink:href="#6" y="4.342"/><use xlink:href="#7" y="8.684"/><use xlink:href="#8" y="13.026"/><use xlink:href="#9" y="15.197"/><use xlink:href="#10" y="17.368"/><use xlink:href="#11" y="19.539"/><use xlink:href="#12" y="21.71"/><use xlink:href="#13" y="23.881"/><use xlink:href="#14" y="26.052"/><use xlink:href="#15" y="28.223"/><use xlink:href="#16" y="30.394"/><use xlink:href="#17" y="34.736"/><use xlink:href="#18" y="39.078"/><use xlink:href="#19" y="41.249"/><use xlink:href="#20" y="43.42"/><use xlink:href="#21" y="45.591"/><use xlink:href="#22" y="49.933"/><use xlink:href="#23" y="52.104"/><use xlink:href="#24" y="54.275"/></svg><svg x="8000"><use xlink:href="#a"/><use xlink:href="#b" x="22.996" y="56.421"/><use xlink:href="#4"/><use xlink:href="#5" y="2.171"/><use xlink:href="#6" y="4.342"/><use xlink:href="#7" y="8.684"/><use xlink:href="#8" y="13.026"/><use xlink:href="#9" y="15.197"/><use xlink:href="#10" y="17.368"/><use xlink:href="#11" y="19.539"/><use xlink:href="#12" y="21.71"/><use xlink:href="#13" y="23.881"/><use xlink:href="#14" y="26.052"/><use xlink:href="#15" y="28.223"/><use xlink:href="#16" y="30.394"/><use xlink:href="#17" y="34.736"/><use xlink:href="#18" y="39.078"/><use xlink:href="#19" y="41.249"/><use xlink:href="#20" y="43.42"/><use xlink:href="#21" y="45.591"/><use xlink:href="#22" y="49.933"/><use xlink:href="#23" y="52.104"/><use xlink:href="#24" y="54.275"/></svg><svg x="8100"><use xlink:href="#a"/><use xlink:href="#b" x="22.996" y="56.421"/><use xlink:href="#4"/><use xlink:href="#5" y="2.171"/><use xlink:href="#6" y="4.342"/><use xlink:href="#7" y="8.684"/><use xlink:href="#8" y="13.026"/><use xlink:href="#9" y="15.197"/><use xlink:href="#10" y="17.368"/><use xlink:href="#11" y="19.539"/><use xlink:href="#12" y="21.71"/><use xlink:href="#13" y="23.881"/><use xlink:href="#14" y="26.052"/><use xlink:href="#15" y="28.223"/><use xlink:href="#16" y="30.394"/><use xlink:href="#17" y="34.736"/><use xlink:href="#18" y="39.078"/><use xlink:href="#19" y="41.249"/><use xlink:href="#20" y="43.42"/><use xlink:href="#21" y="45.591"/><use xlink:href="#22" y="49.933"/><use xlink:href="#23" y="52.104"/><use xlink:href="#24" y="54.275"/></svg><svg x="8200"><use xlink:href="#a"/><use xlink:href="#b" x="22.996" y="56.421"/><use xlink:href="#4"/><use xlink:href="#5" y="2.171"/><use xlink:href="#6" y="4.342"/><use xlink:href="#7" y="8.684"/><use xlink:href="#8" y="13.026"/><use xlink:href="#9" y="15.197"/><use xlink:href="#10" y="17.368"/><use xlink:href="#11" y="19.539"/><use xlink:href="#12" y="21.71"/><use xlink:href="#13" y="23.881"/><use xlink:href="#14" y="26.052"/><use xlink:href="#15" y="28.223"/><use xlink:href="#16" y="30.394"/><use xlink:href="#17" y="34.736"/><use xlink:href="#18" y="39.078"/><use xlink:href="#19" y="41.249"/><use xlink:href="#20" y="43.42"/><use xlink:href="#21" y="45.591"/><use xlink:href="#22" y="49.933"/><use xlink:href="#23" y="52.104"/><use xlink:href="#24" y="54.275"/></svg></svg></g></g></svg></svg>